<?xml version="1.0" encoding="UTF-8"?>
<svg xmlns="http://www.w3.org/2000/svg" xmlns:xlink="http://www.w3.org/1999/xlink" width="64pt" height="64pt" viewBox="0 0 64 64" version="1.1">
<g id="surface1">
<path style=" stroke:none;fill-rule:nonzero;fill:#FFFFFF;fill-opacity:1;" d="M 15 6 C 14.640625 6 14.308594 6.195313 14.128906 6.507813 C 13.953125 6.820313 13.957031 7.207031 14.140625 7.515625 L 28.832031 32 L 14.140625 56.484375 C 13.957031 56.792969 13.953125 57.175781 14.128906 57.492188 C 14.308594 57.804688 14.640625 58 15 58 L 26 58 C 26.351563 58 26.675781 57.816406 26.859375 57.515625 L 41.859375 32.515625 C 42.046875 32.199219 42.046875 31.800781 41.859375 31.484375 L 26.859375 6.484375 C 26.675781 6.183594 26.351563 6 26 6 Z M 35 6 C 34.640625 6 34.308594 6.195313 34.128906 6.507813 C 33.953125 6.820313 33.957031 7.207031 34.140625 7.515625 L 48.832031 32 L 34.140625 56.484375 C 33.957031 56.792969 33.953125 57.175781 34.128906 57.492188 C 34.308594 57.804688 34.640625 58 35 58 L 46 58 C 46.351563 58 46.675781 57.816406 46.859375 57.515625 L 61.859375 32.515625 C 62.046875 32.199219 62.046875 31.800781 61.859375 31.484375 L 46.859375 6.484375 C 46.675781 6.183594 46.351563 6 46 6 Z M 7.492188 7.0625 C 7.363281 7.078125 7.234375 7.121094 7.117188 7.195313 C 6.640625 7.476563 6.488281 8.089844 6.773438 8.5625 L 13.15625 19.207031 C 13.347656 19.519531 13.675781 19.691406 14.015625 19.691406 C 14.191406 19.691406 14.371094 19.648438 14.53125 19.550781 C 15.003906 19.265625 15.160156 18.652344 14.875 18.175781 L 8.484375 7.535156 C 8.273438 7.179688 7.875 7.007813 7.492188 7.0625 Z M 16.765625 8 L 25.433594 8 L 39.832031 32 L 25.433594 56 L 16.765625 56 L 30.859375 32.515625 C 31.046875 32.199219 31.046875 31.800781 30.859375 31.484375 Z M 36.765625 8 L 45.433594 8 L 59.832031 32 L 45.433594 56 L 36.765625 56 L 50.859375 32.515625 C 51.046875 32.199219 51.046875 31.800781 50.859375 31.484375 Z M 16.359375 21.839844 C 16.230469 21.859375 16.101563 21.902344 15.984375 21.972656 C 15.507813 22.257813 15.355469 22.871094 15.640625 23.34375 L 17.5 26.441406 C 17.683594 26.753906 18.019531 26.929688 18.359375 26.929688 C 18.53125 26.929688 18.710938 26.882813 18.871094 26.785156 C 19.34375 26.5 19.5 25.886719 19.214844 25.414063 L 17.355469 22.3125 C 17.140625 21.960938 16.742188 21.785156 16.359375 21.839844 Z M 20.757813 30.515625 C 20.371094 30.46875 19.972656 30.652344 19.765625 31.011719 C 19.492188 31.488281 19.65625 32.101563 20.136719 32.375 L 21.863281 33.375 C 22.023438 33.46875 22.195313 33.511719 22.363281 33.511719 C 22.710938 33.511719 23.046875 33.328125 23.234375 33.011719 C 23.507813 32.53125 23.34375 31.921875 22.863281 31.644531 L 21.136719 30.644531 C 21.015625 30.574219 20.886719 30.535156 20.757813 30.515625 Z M 18.257813 34.847656 C 17.871094 34.800781 17.472656 34.980469 17.265625 35.339844 C 16.992188 35.820313 17.15625 36.429688 17.636719 36.703125 L 19.363281 37.703125 C 19.523438 37.796875 19.695313 37.839844 19.863281 37.839844 C 20.210938 37.839844 20.546875 37.660156 20.734375 37.339844 C 21.007813 36.859375 20.84375 36.25 20.363281 35.972656 L 18.636719 34.972656 C 18.515625 34.90625 18.386719 34.863281 18.257813 34.847656 Z M 15.757813 39.175781 C 15.371094 39.128906 14.972656 39.3125 14.765625 39.671875 C 14.492188 40.148438 14.65625 40.757813 15.136719 41.035156 L 16.863281 42.035156 C 17.023438 42.125 17.195313 42.171875 17.363281 42.171875 C 17.710938 42.171875 18.046875 41.988281 18.234375 41.671875 C 18.507813 41.191406 18.34375 40.582031 17.863281 40.304688 L 16.136719 39.304688 C 16.015625 39.234375 15.886719 39.195313 15.757813 39.175781 Z M 13.257813 43.507813 C 12.871094 43.460938 12.472656 43.640625 12.265625 44 C 11.992188 44.480469 12.15625 45.089844 12.636719 45.363281 L 14.363281 46.363281 C 14.523438 46.457031 14.695313 46.5 14.863281 46.5 C 15.210938 46.5 15.546875 46.320313 15.734375 46 C 16.007813 45.519531 15.84375 44.910156 15.363281 44.636719 L 13.636719 43.636719 C 13.515625 43.566406 13.386719 43.523438 13.257813 43.507813 Z M 10.757813 47.839844 C 10.371094 47.789063 9.972656 47.972656 9.765625 48.328125 C 9.492188 48.808594 9.65625 49.417969 10.136719 49.695313 L 11.863281 50.695313 C 12.023438 50.785156 12.195313 50.828125 12.363281 50.828125 C 12.710938 50.828125 13.046875 50.648438 13.234375 50.328125 C 13.507813 49.851563 13.34375 49.242188 12.863281 48.964844 L 11.136719 47.964844 C 11.015625 47.894531 10.886719 47.855469 10.757813 47.839844 Z M 8.257813 52.167969 C 7.871094 52.121094 7.472656 52.300781 7.265625 52.660156 C 6.992188 53.140625 7.15625 53.75 7.632813 54.027344 L 9.367188 55.027344 C 9.523438 55.117188 9.695313 55.160156 9.867188 55.160156 C 10.210938 55.160156 10.546875 54.980469 10.734375 54.660156 C 11.007813 54.183594 10.84375 53.570313 10.363281 53.296875 L 8.632813 52.296875 C 8.515625 52.226563 8.386719 52.183594 8.257813 52.167969 Z "/>
</g>
</svg>
