<?xml version="1.0" encoding="UTF-8"?>
<svg xmlns="http://www.w3.org/2000/svg" xmlns:xlink="http://www.w3.org/1999/xlink" width="40pt" height="40pt" viewBox="0 0 40 40" version="1.1">
<g id="surface1">
<path style=" stroke:none;fill-rule:nonzero;fill:#FFFFFF;fill-opacity:1;" d="M 1.5 1.5 L 36.5 1.5 L 36.5 30.5 L 1.5 30.5 Z "/>
<path style=" stroke:none;fill-rule:nonzero;fill:#4788C7;fill-opacity:1;" d="M 36 2 L 36 30 L 2 30 L 2 2 L 36 2 M 37 1 L 1 1 L 1 31 L 37 31 Z "/>
<path style=" stroke:none;fill-rule:nonzero;fill:#B6DCFE;fill-opacity:1;" d="M 5 5 L 33 5 L 33 23.855469 L 5 23.855469 Z "/>
<path style=" stroke:none;fill-rule:nonzero;fill:#DFF0FE;fill-opacity:1;" d="M 5 17.375 L 33 17.375 L 33 27 L 5 27 Z "/>
<path style=" stroke:none;fill-rule:nonzero;fill:#DFF0FE;fill-opacity:1;" d="M 31.601563 11.875 C 31.140625 11.875 30.734375 12.097656 30.476563 12.433594 C 30.007813 12.089844 29.433594 11.875 28.800781 11.875 C 28.167969 11.875 27.589844 12.089844 27.121094 12.433594 C 26.867188 12.097656 26.460938 11.875 26 11.875 C 25.621094 11.875 25.28125 12.023438 25.03125 12.261719 C 24.675781 11.625 23.992188 11.1875 23.199219 11.1875 C 22.921875 11.1875 22.652344 11.242188 22.410156 11.339844 C 21.902344 10.824219 21.191406 10.5 20.398438 10.5 C 19.179688 10.5 18.148438 11.273438 17.765625 12.347656 C 17.320313 12.050781 16.78125 11.875 16.199219 11.875 C 15.617188 11.875 15.078125 12.050781 14.632813 12.347656 C 14.25 11.273438 13.222656 10.5 12 10.5 C 11.210938 10.5 10.5 10.824219 9.988281 11.339844 C 9.746094 11.242188 9.480469 11.1875 9.199219 11.1875 C 8.40625 11.1875 7.726563 11.621094 7.367188 12.261719 C 7.117188 12.023438 6.777344 11.875 6.398438 11.875 C 5.628906 11.875 5 12.492188 5 13.25 L 5 21.5 L 33 21.5 L 33 13.25 C 33 12.492188 32.371094 11.875 31.601563 11.875 Z "/>
<path style=" stroke:none;fill-rule:nonzero;fill:#98CCFD;fill-opacity:1;" d="M 5.335938 22 L 33 22 L 33 20.394531 L 24.355469 15.578125 Z "/>
<path style=" stroke:none;fill-rule:nonzero;fill:#B6DCFE;fill-opacity:1;" d="M 24.949219 22 L 5 22 L 5 19.082031 L 14.429688 15 Z "/>
<path style=" stroke:none;fill-rule:nonzero;fill:#DFF0FE;fill-opacity:1;" d="M 16.453125 23.183594 L 16.847656 30 L 26.773438 30 L 21.414063 23.183594 Z "/>
<path style=" stroke:none;fill-rule:nonzero;fill:#B6DCFE;fill-opacity:1;" d="M 16.351563 21.546875 L 16.664063 27 L 24.605469 27 L 20.316406 21.546875 Z "/>
<path style=" stroke:none;fill-rule:nonzero;fill:#98CCFD;fill-opacity:1;" d="M 16.371094 22 L 20.738281 22 L 16.128906 16.132813 L 16.027344 16.066406 Z "/>
<path style=" stroke:none;fill-rule:nonzero;fill:#DFF0FE;fill-opacity:1;" d="M 19.058594 23.703125 L 16.785156 16.785156 L 23.679688 19.058594 L 26.207031 21.585938 L 21.890625 26.539063 Z "/>
<path style=" stroke:none;fill-rule:nonzero;fill:#4788C7;fill-opacity:1;" d="M 17.566406 17.570313 L 23.410156 19.496094 L 25.523438 21.609375 L 21.867188 25.808594 L 19.492188 23.433594 L 17.566406 17.570313 M 16 16 L 18.621094 23.972656 L 21.917969 27.273438 L 26.890625 21.5625 L 23.949219 18.621094 Z "/>
<path style=" stroke:none;fill-rule:nonzero;fill:#4788C7;fill-opacity:1;" d="M 17.585938 20.828125 L 20.5 17.484375 L 16 16 Z "/>
<path style=" stroke:none;fill-rule:nonzero;fill:#B6DCFE;fill-opacity:1;" d="M 36.222656 39.5 C 35.347656 39.5 34.523438 39.160156 33.90625 38.539063 L 31.710938 36.34375 L 36.34375 31.710938 L 38.539063 33.90625 C 39.820313 35.183594 39.820313 37.261719 38.539063 38.539063 C 37.921875 39.160156 37.097656 39.5 36.222656 39.5 Z "/>
<path style=" stroke:none;fill-rule:nonzero;fill:#4788C7;fill-opacity:1;" d="M 36.34375 32.414063 L 38.1875 34.257813 C 39.269531 35.339844 39.269531 37.101563 38.1875 38.1875 C 37.660156 38.710938 36.964844 39 36.222656 39 C 35.480469 39 34.785156 38.710938 34.257813 38.1875 L 32.414063 36.34375 L 36.34375 32.414063 M 36.34375 31.003906 L 31.003906 36.34375 L 33.550781 38.894531 C 34.289063 39.632813 35.257813 40 36.222656 40 C 37.191406 40 38.15625 39.632813 38.894531 38.894531 C 40.367188 37.417969 40.367188 35.027344 38.894531 33.550781 Z "/>
<path style=" stroke:none;fill-rule:nonzero;fill:#B6DCFE;fill-opacity:1;" d="M 19.671875 24.316406 C 20.203125 24.082031 20.640625 23.59375 20.757813 22.753906 C 22.003906 22.554688 22.53125 21.566406 22.691406 20.796875 C 23.160156 20.722656 23.550781 20.527344 23.851563 20.21875 C 24.03125 20.03125 24.15625 19.824219 24.246094 19.621094 L 34.828125 30.195313 L 30.195313 34.828125 Z "/>
<path style=" stroke:none;fill-rule:nonzero;fill:#4788C7;fill-opacity:1;" d="M 24.335938 20.421875 L 34.121094 30.195313 L 30.191406 34.121094 L 20.460938 24.402344 C 20.789063 24.113281 21.050781 23.710938 21.1875 23.167969 C 22.242188 22.863281 22.839844 22.03125 23.097656 21.21875 C 23.621094 21.070313 23.980469 20.800781 24.207031 20.5625 C 24.253906 20.515625 24.296875 20.46875 24.335938 20.421875 M 23.949219 18.621094 C 23.949219 18.621094 24.011719 20.328125 22.246094 20.328125 C 22.246094 20.328125 22.1875 22.289063 20.289063 22.289063 C 20.289063 23.820313 19.261719 23.984375 18.820313 23.984375 C 18.699219 23.984375 18.621094 23.972656 18.621094 23.972656 L 30.195313 35.535156 L 35.535156 30.195313 Z "/>
<path style=" stroke:none;fill-rule:nonzero;fill:#DFF0FE;fill-opacity:1;" d="M 29.722656 34.359375 L 34.359375 29.722656 L 37.753906 33.121094 L 33.121094 37.753906 Z "/>
<path style=" stroke:none;fill-rule:nonzero;fill:#4788C7;fill-opacity:1;" d="M 34.359375 30.429688 L 37.046875 33.121094 L 33.121094 37.046875 L 30.429688 34.359375 L 34.359375 30.429688 M 34.359375 29.015625 L 29.015625 34.359375 L 33.121094 38.460938 L 38.460938 33.121094 Z "/>
</g>
</svg>
