<?xml version="1.0" encoding="UTF-8"?>
<svg xmlns="http://www.w3.org/2000/svg" xmlns:xlink="http://www.w3.org/1999/xlink" width="40pt" height="40pt" viewBox="0 0 40 40" version="1.1">
<g id="surface1">
<path style=" stroke:none;fill-rule:nonzero;fill:#DFF0FE;fill-opacity:1;" d="M 11.5 12.960938 C 11.5 15.996094 9.039063 18.460938 6 18.460938 C 2.960938 18.460938 0.5 15.996094 0.5 12.960938 C 0.5 9.921875 2.960938 7.460938 6 7.460938 C 9.039063 7.460938 11.5 9.921875 11.5 12.960938 Z "/>
<path style=" stroke:none;fill-rule:nonzero;fill:#4788C7;fill-opacity:1;" d="M 6 7.960938 C 8.757813 7.960938 11 10.203125 11 12.960938 C 11 15.71875 8.757813 17.960938 6 17.960938 C 3.242188 17.960938 1 15.71875 1 12.960938 C 1 10.203125 3.242188 7.960938 6 7.960938 M 6 6.960938 C 2.6875 6.960938 0 9.644531 0 12.960938 C 0 16.273438 2.6875 18.960938 6 18.960938 C 9.3125 18.960938 12 16.273438 12 12.960938 C 12 9.644531 9.3125 6.960938 6 6.960938 Z "/>
<path style=" stroke:none;fill-rule:nonzero;fill:#4788C7;fill-opacity:1;" d="M 8 13 C 8 14.105469 7.105469 15 6 15 C 4.894531 15 4 14.105469 4 13 C 4 11.894531 4.894531 11 6 11 C 7.105469 11 8 11.894531 8 13 Z "/>
<path style=" stroke:none;fill-rule:nonzero;fill:#DFF0FE;fill-opacity:1;" d="M 21 18.5 C 16.3125 18.5 12.5 14.6875 12.5 10 C 12.5 5.3125 16.3125 1.5 21 1.5 C 25.6875 1.5 29.5 5.3125 29.5 10 C 29.5 14.6875 25.6875 18.5 21 18.5 Z "/>
<path style=" stroke:none;fill-rule:nonzero;fill:#4788C7;fill-opacity:1;" d="M 21 2 C 25.410156 2 29 5.589844 29 10 C 29 14.410156 25.410156 18 21 18 C 16.589844 18 13 14.410156 13 10 C 13 5.589844 16.589844 2 21 2 M 21 1 C 16.027344 1 12 5.027344 12 10 C 12 14.972656 16.027344 19 21 19 C 25.972656 19 30 14.972656 30 10 C 30 5.027344 25.972656 1 21 1 Z "/>
<path style=" stroke:none;fill-rule:nonzero;fill:#4788C7;fill-opacity:1;" d="M 23 10 C 23 11.105469 22.105469 12 21 12 C 19.894531 12 19 11.105469 19 10 C 19 8.894531 19.894531 8 21 8 C 22.105469 8 23 8.894531 23 10 Z "/>
<path style=" stroke:none;fill-rule:nonzero;fill:#B6DCFE;fill-opacity:1;" d="M 2.652344 38.5 C 1.464844 38.5 0.5 37.535156 0.5 36.347656 L 0.5 21.652344 C 0.5 20.464844 1.464844 19.5 2.652344 19.5 L 26.347656 19.5 C 27.535156 19.5 28.5 20.464844 28.5 21.652344 L 28.5 36.347656 C 28.5 37.535156 27.535156 38.5 26.347656 38.5 Z "/>
<path style=" stroke:none;fill-rule:nonzero;fill:#4788C7;fill-opacity:1;" d="M 26.347656 20 C 27.257813 20 28 20.742188 28 21.652344 L 28 36.347656 C 28 37.257813 27.257813 38 26.347656 38 L 2.652344 38 C 1.742188 38 1 37.257813 1 36.347656 L 1 21.652344 C 1 20.742188 1.742188 20 2.652344 20 L 26.347656 20 M 26.347656 19 L 2.652344 19 C 1.1875 19 0 20.1875 0 21.652344 L 0 36.347656 C 0 37.8125 1.1875 39 2.652344 39 L 26.347656 39 C 27.8125 39 29 37.8125 29 36.347656 L 29 21.652344 C 29 20.1875 27.8125 19 26.347656 19 Z "/>
<path style=" stroke:none;fill-rule:nonzero;fill:#B6DCFE;fill-opacity:1;" d="M 37.222656 37.5 L 31.800781 31.5 L 29.5 31.5 L 29.5 26.5 L 31.800781 26.5 L 37.222656 20.5 L 39.5 20.5 L 39.5 37.5 Z "/>
<path style=" stroke:none;fill-rule:nonzero;fill:#4788C7;fill-opacity:1;" d="M 39 21 L 39 37 L 37.445313 37 L 32.320313 31.328125 L 32.023438 31 L 30 31 L 30 27 L 32.023438 27 L 32.320313 26.671875 L 37.445313 21 L 39 21 M 40 20 L 37 20 L 31.578125 26 L 29 26 L 29 32 L 31.578125 32 L 37 38 L 40 38 Z "/>
<path style=" stroke:none;fill-rule:nonzero;fill:#4788C7;fill-opacity:1;" d="M 30 27 L 32 27 L 32 31 L 30 31 Z "/>
</g>
</svg>
