<svg xmlns="http://www.w3.org/2000/svg" xmlns:xlink="http://www.w3.org/1999/xlink" viewBox="0 0 32 32" fill="#0BF403">
  <path d="M16 3C8.800781 3 3 8.800781 3 16C3 23.199219 8.800781 29 16 29C23.199219 29 29 23.199219 29 16C29 14.601563 28.8125 13.207031 28.3125 11.90625L26.6875 13.5C26.886719 14.300781 27 15.101563 27 16C27 22.101563 22.101563 27 16 27C9.898438 27 5 22.101563 5 16C5 9.898438 9.898438 5 16 5C19 5 21.695313 6.195313 23.59375 8.09375L25 6.6875C22.699219 4.386719 19.5 3 16 3 Z M 27.28125 7.28125L16 18.5625L11.71875 14.28125L10.28125 15.71875L15.28125 20.71875L16 21.40625L16.71875 20.71875L28.71875 8.71875Z" fill="#0BF403" />
</svg>