<svg xmlns="http://www.w3.org/2000/svg" xmlns:xlink="http://www.w3.org/1999/xlink" viewBox="0 0 16 16" fill="#FFFFFF">
  <path d="M3.5 2C2.675781 2 2 2.675781 2 3.5L2 12.5C2 13.324219 2.675781 14 3.5 14L12.5 14C13.324219 14 14 13.324219 14 12.5L14 3.5C14 2.675781 13.324219 2 12.5 2 Z M 3.5 3L12.5 3C12.78125 3 13 3.21875 13 3.5L13 12.5C13 12.78125 12.78125 13 12.5 13L3.5 13C3.21875 13 3 12.78125 3 12.5L3 3.5C3 3.21875 3.21875 3 3.5 3 Z M 5.726563 5.023438L5.023438 5.726563L7.292969 8L5.023438 10.269531L5.726563 10.980469L8 8.707031L10.269531 10.980469L10.980469 10.269531L8.707031 8L10.980469 5.726563L10.269531 5.023438L8 7.292969Z" fill="#FFFFFF" />
</svg>