<?xml version="1.0" encoding="UTF-8"?>
<svg xmlns="http://www.w3.org/2000/svg" xmlns:xlink="http://www.w3.org/1999/xlink" width="100pt" height="100pt" viewBox="0 0 100 100" version="1.1">
<g id="surface1">
<path style=" stroke:none;fill-rule:nonzero;fill:#C7EDE6;fill-opacity:1;" d="M 87.214844 56.710938 C 88.351563 54.554688 89 52.105469 89 49.5 C 89 42.878906 84.839844 37.242188 79 35.023438 C 79 35.015625 79 35.007813 79 35 C 79 23.402344 69.597656 14 58 14 C 48.214844 14 40.019531 20.699219 37.6875 29.757813 C 36.210938 29.273438 34.636719 29 33 29 C 25.308594 29 18.976563 34.792969 18.109375 42.253906 C 12.90625 43.351563 9 47.96875 9 53.5 C 9 59.851563 14.148438 65 20.5 65 C 20.675781 65 20.851563 64.988281 21.027344 64.976563 C 21.023438 65.152344 21 65.324219 21 65.5 C 21 76.820313 30.179688 86 41.5 86 C 47.9375 86 53.675781 83.027344 57.433594 78.386719 C 59.613281 80.609375 62.640625 82 66 82 C 70.648438 82 74.675781 79.351563 76.664063 75.480469 C 77.71875 75.816406 78.835938 76 80 76 C 86.074219 76 91 71.074219 91 65 C 91 61.6875 89.53125 58.726563 87.214844 56.710938 Z "/>
<path style=" stroke:none;fill-rule:nonzero;fill:#FDFCEF;fill-opacity:1;" d="M 79.875 51.5 C 79.875 51.5 83.515625 51.5 86 51.5 C 88.484375 51.5 90.5 49.484375 90.5 47 C 90.5 44.667969 88.71875 42.769531 86.445313 42.546875 C 86.46875 42.363281 86.5 42.1875 86.5 42 C 86.5 39.515625 84.484375 37.5 82 37.5 C 80.5625 37.5 79.296875 38.1875 78.472656 39.234375 C 78.332031 36.601563 76.171875 34.5 73.5 34.5 C 70.738281 34.5 68.5 36.738281 68.5 39.5 C 68.5 39.945313 68.578125 40.371094 68.6875 40.78125 C 68.046875 40.003906 67.085938 39.5 66 39.5 C 64.21875 39.5 62.765625 40.835938 62.546875 42.554688 C 62.363281 42.53125 62.1875 42.5 62 42.5 C 59.515625 42.5 57.5 44.515625 57.5 47 C 57.5 49.484375 59.515625 51.5 62 51.5 C 64.484375 51.5 71.5 51.5 71.5 51.5 L 76.875 51.5 L 76.875 52 L 79.875 52 Z "/>
<path style=" stroke:none;fill-rule:nonzero;fill:#472B29;fill-opacity:1;" d="M 73.5 34 C 70.46875 34 68 36.46875 68 39.5 C 68 39.515625 68 39.53125 68 39.546875 C 67.398438 39.191406 66.710938 39 66 39 C 64.167969 39 62.589844 40.261719 62.140625 42.003906 C 62.09375 42.003906 62.046875 42 62 42 C 59.242188 42 57 44.242188 57 47 C 57 49.757813 59.242188 52 62 52 L 76.875 52 C 77.152344 52 77.375 51.777344 77.375 51.5 C 77.375 51.222656 77.152344 51 76.875 51 L 62 51 C 59.792969 51 58 49.207031 58 47 C 58 44.792969 59.792969 43 62 43 C 62.117188 43 62.230469 43.015625 62.34375 43.03125 L 62.484375 43.050781 C 62.503906 43.054688 62.523438 43.054688 62.546875 43.054688 C 62.792969 43.054688 63.007813 42.871094 63.039063 42.617188 C 63.230469 41.125 64.503906 40 66 40 C 66.886719 40 67.722656 40.402344 68.300781 41.101563 C 68.398438 41.21875 68.542969 41.28125 68.6875 41.28125 C 68.765625 41.28125 68.84375 41.265625 68.914063 41.226563 C 69.125 41.117188 69.230469 40.878906 69.167969 40.652344 C 69.054688 40.21875 69 39.851563 69 39.5 C 69 37.019531 71.019531 35 73.5 35 C 75.882813 35 77.847656 36.871094 77.972656 39.261719 C 77.984375 39.472656 78.125 39.648438 78.324219 39.714844 C 78.371094 39.730469 78.425781 39.738281 78.476563 39.738281 C 78.625 39.738281 78.769531 39.667969 78.867188 39.546875 C 79.636719 38.5625 80.777344 38 82 38 C 84.207031 38 86 39.792969 86 42 C 86 42.117188 85.984375 42.230469 85.96875 42.34375 L 85.949219 42.484375 C 85.933594 42.617188 85.972656 42.753906 86.054688 42.855469 C 86.140625 42.960938 86.261719 43.027344 86.394531 43.042969 C 88.449219 43.246094 90 44.949219 90 47 C 90 49.207031 88.207031 51 86 51 L 79.875 51 C 79.597656 51 79.375 51.222656 79.375 51.5 C 79.375 51.777344 79.597656 52 79.875 52 L 86 52 C 88.757813 52 91 49.757813 91 47 C 91 44.601563 89.3125 42.585938 86.996094 42.121094 C 87 42.082031 87 42.039063 87 42 C 87 39.242188 84.757813 37 82 37 C 80.824219 37 79.707031 37.414063 78.816406 38.164063 C 78.21875 35.761719 76.054688 34 73.5 34 Z "/>
<path style=" stroke:none;fill-rule:nonzero;fill:#472B29;fill-opacity:1;" d="M 72 41 C 70.597656 41 69.390625 42 69.085938 43.339844 C 68.71875 43.117188 68.300781 43 67.875 43 C 66.671875 43 65.675781 43.898438 65.523438 45.066406 C 65.320313 45.023438 65.125 45 64.9375 45 C 63.410156 45 62.128906 46.199219 62.019531 47.730469 C 62.011719 47.871094 62.113281 47.988281 62.25 48 C 62.257813 48 62.261719 48 62.269531 48 C 62.398438 48 62.507813 47.898438 62.519531 47.769531 C 62.605469 46.496094 63.667969 45.5 64.9375 45.5 C 65.164063 45.5 65.40625 45.542969 65.675781 45.628906 C 65.695313 45.632813 65.71875 45.636719 65.742188 45.636719 C 65.796875 45.636719 65.851563 45.617188 65.898438 45.582031 C 65.960938 45.535156 66 45.453125 66 45.375 C 66 44.339844 66.839844 43.5 67.875 43.5 C 68.320313 43.5 68.761719 43.667969 69.105469 43.972656 C 69.152344 44.015625 69.210938 44.035156 69.269531 44.035156 C 69.304688 44.035156 69.335938 44.03125 69.363281 44.015625 C 69.453125 43.980469 69.511719 43.898438 69.519531 43.804688 C 69.621094 42.511719 70.710938 41.5 72 41.5 C 72.207031 41.5 72.425781 41.535156 72.683594 41.605469 C 72.703125 41.613281 72.730469 41.617188 72.753906 41.617188 C 72.859375 41.617188 72.960938 41.542969 72.992188 41.433594 C 73.027344 41.300781 72.953125 41.164063 72.820313 41.125 C 72.515625 41.039063 72.257813 41 72 41 Z "/>
<path style=" stroke:none;fill-rule:nonzero;fill:#472B29;fill-opacity:1;" d="M 85.882813 42.5 C 84.558594 42.5 83.375 43.398438 83.007813 44.683594 C 82.972656 44.816406 83.046875 44.953125 83.179688 44.992188 C 83.203125 44.996094 83.226563 45 83.25 45 C 83.359375 45 83.460938 44.929688 83.488281 44.816406 C 83.796875 43.746094 84.777344 43 85.882813 43 C 86 43 86.113281 43.015625 86.226563 43.027344 C 86.238281 43.03125 86.246094 43.03125 86.261719 43.03125 C 86.382813 43.03125 86.488281 42.941406 86.507813 42.816406 C 86.523438 42.679688 86.429688 42.550781 86.292969 42.535156 C 86.15625 42.515625 86.023438 42.5 85.882813 42.5 Z "/>
<path style=" stroke:none;fill-rule:nonzero;fill:#FFFFFF;fill-opacity:1;" d="M 15.40625 51 L 5.5 51 C 5.222656 51 5 50.777344 5 50.5 C 5 50.222656 5.222656 50 5.5 50 L 15.40625 50 C 15.679688 50 15.90625 50.222656 15.90625 50.5 C 15.90625 50.777344 15.683594 51 15.40625 51 Z "/>
<path style=" stroke:none;fill-rule:nonzero;fill:#FFFFFF;fill-opacity:1;" d="M 18.5 51 L 17.5 51 C 17.222656 51 17 50.777344 17 50.5 C 17 50.222656 17.222656 50 17.5 50 L 18.5 50 C 18.777344 50 19 50.222656 19 50.5 C 19 50.777344 18.777344 51 18.5 51 Z "/>
<path style=" stroke:none;fill-rule:nonzero;fill:#FFFFFF;fill-opacity:1;" d="M 23.492188 53 L 14.5 53 C 14.222656 53 14 52.777344 14 52.5 C 14 52.222656 14.222656 52 14.5 52 L 23.492188 52 C 23.765625 52 23.992188 52.222656 23.992188 52.5 C 23.992188 52.777344 23.765625 53 23.492188 53 Z "/>
<path style=" stroke:none;fill-rule:nonzero;fill:#FFFFFF;fill-opacity:1;" d="M 12.5 53 L 11.5 53 C 11.222656 53 11 52.777344 11 52.5 C 11 52.222656 11.222656 52 11.5 52 L 12.5 52 C 12.777344 52 13 52.222656 13 52.5 C 13 52.777344 12.777344 53 12.5 53 Z "/>
<path style=" stroke:none;fill-rule:nonzero;fill:#FFFFFF;fill-opacity:1;" d="M 9.5 53 L 7.5 53 C 7.222656 53 7 52.777344 7 52.5 C 7 52.222656 7.222656 52 7.5 52 L 9.5 52 C 9.777344 52 10 52.222656 10 52.5 C 10 52.777344 9.777344 53 9.5 53 Z "/>
<path style=" stroke:none;fill-rule:nonzero;fill:#FFFFFF;fill-opacity:1;" d="M 15.5 55 L 13.5 55 C 13.222656 55 13 54.777344 13 54.5 C 13 54.222656 13.222656 54 13.5 54 L 15.5 54 C 15.777344 54 16 54.222656 16 54.5 C 16 54.777344 15.777344 55 15.5 55 Z "/>
<path style=" stroke:none;fill-rule:nonzero;fill:#FFFFFF;fill-opacity:1;" d="M 18.5 46 C 18.324219 46 17.675781 46 17.5 46 C 17.222656 46 17 46.222656 17 46.5 C 17 46.777344 17.222656 47 17.5 47 C 17.675781 47 18.324219 47 18.5 47 C 18.777344 47 19 46.777344 19 46.5 C 19 46.222656 18.777344 46 18.5 46 Z "/>
<path style=" stroke:none;fill-rule:nonzero;fill:#FFFFFF;fill-opacity:1;" d="M 18.5 48 C 18.324219 48 13.675781 48 13.5 48 C 13.222656 48 13 48.222656 13 48.5 C 13 48.777344 13.222656 49 13.5 49 C 13.675781 49 18.324219 49 18.5 49 C 18.777344 49 19 48.777344 19 48.5 C 19 48.222656 18.777344 48 18.5 48 Z "/>
<path style=" stroke:none;fill-rule:nonzero;fill:#FFFFFF;fill-opacity:1;" d="M 23.5 50 C 23.324219 50 20.675781 50 20.5 50 C 20.222656 50 20 50.222656 20 50.5 C 20 50.777344 20.222656 51 20.5 51 C 20.675781 51 23.324219 51 23.5 51 C 23.777344 51 24 50.777344 24 50.5 C 24 50.222656 23.777344 50 23.5 50 Z "/>
<path style=" stroke:none;fill-rule:nonzero;fill:#FFFFFF;fill-opacity:1;" d="M 72.5 24 L 62.5 24 C 62.222656 24 62 23.777344 62 23.5 C 62 23.222656 62.222656 23 62.5 23 L 72.5 23 C 72.777344 23 73 23.222656 73 23.5 C 73 23.777344 72.777344 24 72.5 24 Z "/>
<path style=" stroke:none;fill-rule:nonzero;fill:#FFFFFF;fill-opacity:1;" d="M 76.5 24 L 74.5 24 C 74.222656 24 74 23.777344 74 23.5 C 74 23.222656 74.222656 23 74.5 23 L 76.5 23 C 76.777344 23 77 23.222656 77 23.5 C 77 23.777344 76.777344 24 76.5 24 Z "/>
<path style=" stroke:none;fill-rule:nonzero;fill:#FFFFFF;fill-opacity:1;" d="M 81.5 26 L 71.5 26 C 71.222656 26 71 25.777344 71 25.5 C 71 25.222656 71.222656 25 71.5 25 L 81.5 25 C 81.777344 25 82 25.222656 82 25.5 C 82 25.777344 81.777344 26 81.5 26 Z "/>
<path style=" stroke:none;fill-rule:nonzero;fill:#FFFFFF;fill-opacity:1;" d="M 69.5 26 L 68.5 26 C 68.222656 26 68 25.777344 68 25.5 C 68 25.222656 68.222656 25 68.5 25 L 69.5 25 C 69.777344 25 70 25.222656 70 25.5 C 70 25.777344 69.777344 26 69.5 26 Z "/>
<path style=" stroke:none;fill-rule:nonzero;fill:#FFFFFF;fill-opacity:1;" d="M 66.375 26 L 64.5 26 C 64.222656 26 64 25.777344 64 25.5 C 64 25.222656 64.222656 25 64.5 25 L 66.375 25 C 66.652344 25 66.875 25.222656 66.875 25.5 C 66.875 25.777344 66.652344 26 66.375 26 Z "/>
<path style=" stroke:none;fill-rule:nonzero;fill:#FFFFFF;fill-opacity:1;" d="M 75.5 22 L 70.5 22 C 70.222656 22 70 21.777344 70 21.5 C 70 21.222656 70.222656 21 70.5 21 L 75.5 21 C 75.777344 21 76 21.222656 76 21.5 C 76 21.777344 75.777344 22 75.5 22 Z "/>
<path style=" stroke:none;fill-rule:nonzero;fill:#FFFFFF;fill-opacity:1;" d="M 72.5 28 L 70.5 28 C 70.222656 28 70 27.777344 70 27.5 C 70 27.222656 70.222656 27 70.5 27 L 72.5 27 C 72.777344 27 73 27.222656 73 27.5 C 73 27.777344 72.777344 28 72.5 28 Z "/>
<path style=" stroke:none;fill-rule:nonzero;fill:#D6D3C5;fill-opacity:1;" d="M 30.679688 69.300781 C 29.035156 69.300781 27.699219 67.996094 27.699219 66.390625 L 27.699219 42.625 C 27.699219 41.019531 29.039063 39.714844 30.679688 39.714844 L 42.136719 39.714844 L 43.28125 35.65625 C 43.675781 34.5 44.8125 33.699219 46.097656 33.699219 L 53.789063 33.699219 C 55.074219 33.699219 56.210938 34.5 56.613281 35.691406 L 57.75 39.714844 L 69.320313 39.714844 C 70.964844 39.714844 72.300781 41.019531 72.300781 42.625 L 72.300781 66.390625 C 72.300781 67.992188 70.960938 69.300781 69.320313 69.300781 Z "/>
<path style=" stroke:none;fill-rule:nonzero;fill:#472B29;fill-opacity:1;" d="M 53.789063 34.398438 C 54.765625 34.398438 55.625 34.996094 55.941406 35.886719 L 56.933594 39.394531 L 57.222656 40.414063 L 69.320313 40.414063 C 70.578125 40.414063 71.601563 41.40625 71.601563 42.625 L 71.601563 66.390625 C 71.601563 67.609375 70.578125 68.601563 69.320313 68.601563 L 30.679688 68.601563 C 29.421875 68.601563 28.398438 67.609375 28.398438 66.390625 L 28.398438 42.625 C 28.398438 41.40625 29.421875 40.414063 30.679688 40.414063 L 42.664063 40.414063 L 42.953125 39.394531 L 43.941406 35.886719 C 44.261719 34.996094 45.121094 34.398438 46.097656 34.398438 L 53.789063 34.398438 M 53.789063 33 L 46.097656 33 C 44.515625 33 43.109375 33.992188 42.605469 35.46875 L 41.605469 39.015625 L 30.679688 39.015625 C 28.648438 39.015625 27 40.632813 27 42.625 L 27 66.390625 C 27 68.382813 28.648438 70 30.679688 70 L 69.320313 70 C 71.351563 70 73 68.382813 73 66.390625 L 73 42.625 C 73 40.632813 71.351563 39.015625 69.320313 39.015625 L 58.28125 39.015625 L 57.277344 35.46875 C 56.777344 33.992188 55.371094 33 53.789063 33 Z "/>
<path style=" stroke:none;fill-rule:nonzero;fill:#BE7841;fill-opacity:1;" d="M 28.375 46.5 L 71.5625 46.5 L 71.5625 65 L 28.375 65 Z "/>
<path style=" stroke:none;fill-rule:nonzero;fill:#28262D;fill-opacity:1;" d="M 61.039063 41.921875 L 66.558594 41.921875 L 66.558594 44.679688 L 61.039063 44.679688 Z "/>
<path style=" stroke:none;fill-rule:nonzero;fill:#D6D3C5;fill-opacity:1;" d="M 32.699219 35.699219 L 38.300781 35.699219 L 38.300781 39.300781 L 32.699219 39.300781 Z "/>
<path style=" stroke:none;fill-rule:nonzero;fill:#472B29;fill-opacity:1;" d="M 37.601563 36.398438 L 37.601563 38.601563 L 33.398438 38.601563 L 33.398438 36.398438 L 37.601563 36.398438 M 39 35 L 32 35 L 32 40 L 39 40 Z "/>
<path style=" stroke:none;fill-rule:nonzero;fill:#472B29;fill-opacity:1;" d="M 48.5 40 L 41.5 40 C 41.222656 40 41 39.777344 41 39.5 C 41 39.222656 41.222656 39 41.5 39 L 48.5 39 C 48.777344 39 49 39.222656 49 39.5 C 49 39.777344 48.777344 40 48.5 40 Z "/>
<path style=" stroke:none;fill-rule:nonzero;fill:#472B29;fill-opacity:1;" d="M 61.5 47 L 28.5 47 C 28.222656 47 28 46.777344 28 46.5 C 28 46.222656 28.222656 46 28.5 46 L 61.5 46 C 61.777344 46 62 46.222656 62 46.5 C 62 46.777344 61.777344 47 61.5 47 Z "/>
<path style=" stroke:none;fill-rule:nonzero;fill:#472B29;fill-opacity:1;" d="M 67.5 65 L 28.5 65 C 28.222656 65 28 64.777344 28 64.5 C 28 64.222656 28.222656 64 28.5 64 L 67.5 64 C 67.777344 64 68 64.222656 68 64.5 C 68 64.777344 67.777344 65 67.5 65 Z "/>
<path style=" stroke:none;fill-rule:nonzero;fill:#472B29;fill-opacity:1;" d="M 55.5 40 L 51.5 40 C 51.222656 40 51 39.777344 51 39.5 C 51 39.222656 51.222656 39 51.5 39 L 55.5 39 C 55.777344 39 56 39.222656 56 39.5 C 56 39.777344 55.777344 40 55.5 40 Z "/>
<path style=" stroke:none;fill-rule:nonzero;fill:#472B29;fill-opacity:1;" d="M 68.5 47 L 65.5 47 C 65.222656 47 65 46.777344 65 46.5 C 65 46.222656 65.222656 46 65.5 46 L 68.5 46 C 68.777344 46 69 46.222656 69 46.5 C 69 46.777344 68.777344 47 68.5 47 Z "/>
<path style=" stroke:none;fill-rule:nonzero;fill:#BEBACB;fill-opacity:1;" d="M 59.421875 55.179688 C 59.421875 60.636719 54.996094 65.058594 49.539063 65.058594 C 44.082031 65.058594 39.660156 60.636719 39.660156 55.179688 C 39.660156 49.722656 44.082031 45.300781 49.539063 45.300781 C 54.996094 45.300781 59.421875 49.722656 59.421875 55.179688 Z "/>
<path style=" stroke:none;fill-rule:nonzero;fill:#472B29;fill-opacity:1;" d="M 49.539063 46 C 54.601563 46 58.71875 50.117188 58.71875 55.179688 C 58.71875 60.242188 54.601563 64.359375 49.539063 64.359375 C 44.476563 64.359375 40.359375 60.242188 40.359375 55.179688 C 40.359375 50.117188 44.476563 46 49.539063 46 M 49.539063 44.601563 C 43.695313 44.601563 38.960938 49.335938 38.960938 55.179688 C 38.960938 61.023438 43.695313 65.761719 49.539063 65.761719 C 55.382813 65.761719 60.121094 61.023438 60.121094 55.179688 C 60.121094 49.335938 55.382813 44.601563 49.539063 44.601563 Z "/>
<path style=" stroke:none;fill-rule:nonzero;fill:#28262D;fill-opacity:1;" d="M 49.539063 60.460938 C 46.628906 60.460938 44.261719 58.09375 44.261719 55.179688 C 44.261719 52.269531 46.628906 49.902344 49.539063 49.902344 C 52.449219 49.902344 54.820313 52.269531 54.820313 55.179688 C 54.820313 58.09375 52.449219 60.460938 49.539063 60.460938 Z "/>
<path style=" stroke:none;fill-rule:nonzero;fill:#472B29;fill-opacity:1;" d="M 49.539063 50.601563 C 52.066406 50.601563 54.121094 52.65625 54.121094 55.179688 C 54.121094 57.703125 52.066406 59.761719 49.539063 59.761719 C 47.015625 59.761719 44.960938 57.703125 44.960938 55.179688 C 44.960938 52.65625 47.015625 50.601563 49.539063 50.601563 M 49.539063 49.199219 C 46.238281 49.199219 43.558594 51.878906 43.558594 55.179688 C 43.558594 58.484375 46.238281 61.160156 49.539063 61.160156 C 52.84375 61.160156 55.519531 58.484375 55.519531 55.179688 C 55.519531 51.878906 52.84375 49.199219 49.539063 49.199219 Z "/>
<path style=" stroke:none;fill-rule:nonzero;fill:#FDFCEF;fill-opacity:1;" d="M 34.5 74.5 C 34.5 74.5 36.066406 74.5 38 74.5 C 39.933594 74.5 41.5 72.933594 41.5 71 C 41.5 69.21875 40.164063 67.765625 38.445313 67.546875 C 38.472656 67.367188 38.5 67.1875 38.5 67 C 38.5 65.066406 36.933594 63.5 35 63.5 C 33.96875 63.5 33.050781 63.953125 32.410156 64.664063 C 32.027344 62.855469 30.421875 61.5 28.5 61.5 C 26.289063 61.5 24.5 63.289063 24.5 65.5 C 24.5 65.691406 24.53125 65.875 24.554688 66.058594 C 24.128906 65.714844 23.59375 65.5 23 65.5 C 21.773438 65.5 20.753906 66.386719 20.546875 67.554688 C 20.367188 67.527344 20.1875 67.5 20 67.5 C 18.066406 67.5 16.5 69.066406 16.5 71 C 16.5 72.933594 18.066406 74.5 20 74.5 C 21.933594 74.5 27.5 74.5 27.5 74.5 L 27.5 75 L 34.5 75 Z "/>
<path style=" stroke:none;fill-rule:nonzero;fill:#472B29;fill-opacity:1;" d="M 36.25 70 C 36.113281 70 36 69.886719 36 69.75 C 36 68.527344 36.996094 67.53125 38.21875 67.53125 C 38.253906 67.539063 38.953125 67.53125 39.460938 67.667969 C 39.59375 67.703125 39.675781 67.839844 39.636719 67.972656 C 39.601563 68.109375 39.464844 68.1875 39.332031 68.148438 C 38.886719 68.03125 38.230469 68.03125 38.21875 68.03125 C 37.269531 68.03125 36.5 68.804688 36.5 69.75 C 36.5 69.886719 36.386719 70 36.25 70 Z "/>
<path style=" stroke:none;fill-rule:nonzero;fill:#472B29;fill-opacity:1;" d="M 30 74.5 C 30 74.777344 29.777344 75 29.5 75 C 29.222656 75 29 74.777344 29 74.5 C 29 74.222656 29.222656 74 29.5 74 C 29.777344 74 30 74.222656 30 74.5 Z "/>
<path style=" stroke:none;fill-rule:nonzero;fill:#472B29;fill-opacity:1;" d="M 38 75 L 34.5 75 C 34.222656 75 34 74.777344 34 74.5 C 34 74.222656 34.222656 74 34.5 74 L 38 74 C 39.652344 74 41 72.652344 41 71 C 41 69.503906 39.875 68.230469 38.382813 68.039063 C 38.246094 68.023438 38.128906 67.953125 38.046875 67.84375 C 37.964844 67.738281 37.929688 67.601563 37.953125 67.46875 C 37.976563 67.3125 38 67.160156 38 67 C 38 65.347656 36.652344 64 35 64 C 34.148438 64 33.363281 64.355469 32.78125 65 C 32.65625 65.140625 32.460938 65.199219 32.28125 65.148438 C 32.097656 65.097656 31.960938 64.953125 31.921875 64.769531 C 31.578125 63.164063 30.140625 62 28.5 62 C 26.570313 62 25 63.570313 25 65.5 C 25 65.644531 25.019531 65.78125 25.039063 65.917969 C 25.070313 66.121094 24.976563 66.355469 24.800781 66.457031 C 24.621094 66.558594 24.402344 66.574219 24.242188 66.449219 C 23.878906 66.15625 23.449219 66 23 66 C 22.035156 66 21.207031 66.691406 21.035156 67.644531 C 20.988281 67.910156 20.742188 68.089844 20.46875 68.050781 C 20.3125 68.023438 20.160156 68 20 68 C 18.347656 68 17 69.347656 17 71 C 17 72.652344 18.347656 74 20 74 L 27.5 74 C 27.777344 74 28 74.222656 28 74.5 C 28 74.777344 27.777344 75 27.5 75 L 20 75 C 17.792969 75 16 73.207031 16 71 C 16 68.792969 17.792969 67 20 67 C 20.058594 67 20.117188 67.003906 20.175781 67.007813 C 20.589844 65.820313 21.710938 65 23 65 C 23.347656 65 23.6875 65.0625 24.011719 65.179688 C 24.175781 62.847656 26.125 61 28.5 61 C 30.332031 61 31.964844 62.128906 32.652344 63.773438 C 33.332031 63.277344 34.15625 63 35 63 C 37.207031 63 39 64.792969 39 67 C 39 67.046875 39 67.09375 38.996094 67.140625 C 40.738281 67.589844 42 69.167969 42 71 C 42 73.207031 40.207031 75 38 75 Z "/>
<path style=" stroke:none;fill-rule:nonzero;fill:#472B29;fill-opacity:1;" d="M 32.5 74 C 32.339844 74 31.660156 74 31.5 74 C 31.222656 74 31 74.222656 31 74.5 C 31 74.777344 31.222656 75 31.5 75 C 31.660156 75 32.339844 75 32.5 75 C 32.777344 75 33 74.777344 33 74.5 C 33 74.222656 32.777344 74 32.5 74 Z "/>
</g>
</svg>
