<?xml version="1.0" encoding="UTF-8"?>
<svg xmlns="http://www.w3.org/2000/svg" xmlns:xlink="http://www.w3.org/1999/xlink" width="40pt" height="40pt" viewBox="0 0 40 40" version="1.1">
<g id="surface1">
<path style=" stroke:none;fill-rule:nonzero;fill:#DFF0FE;fill-opacity:1;" d="M 3 34.5 C 2.171875 34.5 1.5 33.828125 1.5 33 L 1.5 11 C 1.5 10.171875 2.171875 9.5 3 9.5 L 10.777344 9.5 L 13.277344 5.5 L 26.722656 5.5 L 29.222656 9.5 L 37 9.5 C 37.828125 9.5 38.5 10.171875 38.5 11 L 38.5 33 C 38.5 33.828125 37.828125 34.5 37 34.5 Z "/>
<path style=" stroke:none;fill-rule:nonzero;fill:#4788C7;fill-opacity:1;" d="M 26.445313 6 L 28.945313 10 L 37 10 C 37.265625 10 37.515625 10.105469 37.703125 10.296875 C 37.894531 10.484375 38 10.734375 38 11 L 38 33 C 38 33.550781 37.550781 34 37 34 L 3 34 C 2.734375 34 2.484375 33.894531 2.296875 33.703125 C 2.105469 33.515625 2 33.265625 2 33 L 2 11 C 2 10.449219 2.449219 10 3 10 L 11.054688 10 L 13.554688 6 L 26.445313 6 M 27 5 L 13 5 L 10.5 9 L 3 9 C 1.898438 9 1 9.898438 1 11 L 1 33 C 1 34.101563 1.902344 35 3 35 L 37 35 C 38.101563 35 39 34.101563 39 33 L 39 11 C 39 9.898438 38.097656 9 37 9 L 29.5 9 Z "/>
<path style=" stroke:none;fill-rule:nonzero;fill:#98CCFD;fill-opacity:1;" d="M 30 13 L 35 13 L 35 16 L 30 16 Z "/>
<path style=" stroke:none;fill-rule:nonzero;fill:#98CCFD;fill-opacity:1;" d="M 28.5 21 C 28.5 25.695313 24.695313 29.5 20 29.5 C 15.304688 29.5 11.5 25.695313 11.5 21 C 11.5 16.304688 15.304688 12.5 20 12.5 C 24.695313 12.5 28.5 16.304688 28.5 21 Z "/>
<path style=" stroke:none;fill-rule:nonzero;fill:#4788C7;fill-opacity:1;" d="M 20 13 C 24.410156 13 28 16.589844 28 21 C 28 25.410156 24.410156 29 20 29 C 15.589844 29 12 25.410156 12 21 C 12 16.589844 15.589844 13 20 13 M 20 12 C 15.03125 12 11 16.027344 11 21 C 11 25.972656 15.027344 30 20 30 C 24.972656 30 29 25.972656 29 21 C 29 16.027344 24.972656 12 20 12 Z "/>
<path style=" stroke:none;fill-rule:nonzero;fill:#4788C7;fill-opacity:1;" d="M 8 10 L 5 10 C 4.449219 10 4 9.550781 4 9 C 4 8.449219 4.449219 8 5 8 L 8 8 C 8.550781 8 9 8.449219 9 9 C 9 9.550781 8.550781 10 8 10 Z "/>
<path style="fill:none;stroke-width:1;stroke-linecap:round;stroke-linejoin:miter;stroke:#FFFFFF;stroke-opacity:1;stroke-miterlimit:4;" d="M 15.53125 20.5 C 15.761719 18.410156 17.410156 16.761719 19.5 16.53125 "/>
</g>
</svg>
