<?xml version="1.0" encoding="UTF-8"?>
<svg xmlns="http://www.w3.org/2000/svg" xmlns:xlink="http://www.w3.org/1999/xlink" width="50pt" height="50pt" viewBox="0 0 50 50" version="1.1">
<g id="surface1">
<path style=" stroke:none;fill-rule:nonzero;fill:#FFFFFF;fill-opacity:1;" d="M 24.800781 1.984375 C 12.21875 1.984375 1.984375 12.21875 1.984375 24.800781 C 1.984375 37.382813 12.21875 47.617188 24.800781 47.617188 C 37.382813 47.617188 47.617188 37.382813 47.617188 24.800781 C 47.617188 12.21875 37.382813 1.984375 24.800781 1.984375 Z M 24.730469 31.746094 L 35.578125 42.597656 C 34.992188 42.953125 34.386719 43.28125 33.761719 43.582031 L 19.839844 29.660156 L 19.839844 45.011719 C 19.167969 44.847656 18.503906 44.652344 17.855469 44.417969 L 17.855469 24.730469 L 7.007813 35.578125 C 6.648438 34.988281 6.320313 34.386719 6.023438 33.761719 L 19.941406 19.839844 L 4.59375 19.839844 C 4.753906 19.167969 4.953125 18.503906 5.183594 17.855469 L 24.871094 17.855469 L 14.023438 7.007813 C 14.609375 6.648438 15.21875 6.320313 15.84375 6.023438 L 29.761719 19.941406 L 29.761719 4.59375 C 30.4375 4.753906 31.097656 4.953125 31.746094 5.183594 L 31.746094 24.871094 L 42.597656 14.023438 C 42.953125 14.613281 43.28125 15.21875 43.582031 15.847656 L 29.660156 29.761719 L 45.011719 29.761719 C 44.847656 30.4375 44.652344 31.097656 44.417969 31.746094 Z "/>
</g>
</svg>
