<?xml version="1.0" encoding="UTF-8"?>
<svg xmlns="http://www.w3.org/2000/svg" xmlns:xlink="http://www.w3.org/1999/xlink" width="50pt" height="50pt" viewBox="0 0 50 50" version="1.1">
<g id="surface1">
<path style=" stroke:none;fill-rule:nonzero;fill:#FFFFFF;fill-opacity:1;" d="M 24.800781 1.984375 C 17.691406 1.984375 11.90625 7.769531 11.90625 14.882813 C 11.90625 19.917969 14.984375 26.136719 17.996094 31.242188 C 21.003906 36.347656 24.011719 40.285156 24.011719 40.285156 L 24.800781 41.3125 L 25.59375 40.285156 C 25.59375 40.285156 28.597656 36.347656 31.605469 31.242188 C 34.617188 26.136719 37.699219 19.917969 37.699219 14.882813 C 37.699219 7.769531 31.914063 1.984375 24.800781 1.984375 Z M 24.800781 3.96875 C 30.839844 3.96875 35.714844 8.84375 35.714844 14.882813 C 35.714844 19.0625 32.84375 25.242188 29.902344 30.234375 C 27.351563 34.554688 25.441406 37.042969 24.800781 37.894531 C 24.164063 37.042969 22.25 34.554688 19.703125 30.234375 C 16.761719 25.242188 13.890625 19.0625 13.890625 14.882813 C 13.890625 8.84375 18.765625 3.96875 24.800781 3.96875 Z M 24.800781 9.921875 C 22.074219 9.921875 19.839844 12.152344 19.839844 14.882813 C 19.839844 17.609375 22.074219 19.839844 24.800781 19.839844 C 27.53125 19.839844 29.761719 17.609375 29.761719 14.882813 C 29.761719 12.152344 27.53125 9.921875 24.800781 9.921875 Z M 24.800781 11.90625 C 26.457031 11.90625 27.777344 13.226563 27.777344 14.882813 C 27.777344 16.535156 26.457031 17.855469 24.800781 17.855469 C 23.148438 17.855469 21.824219 16.535156 21.824219 14.882813 C 21.824219 13.226563 23.148438 11.90625 24.800781 11.90625 Z M 7.238281 31.746094 L 1.566406 47.617188 L 48.039063 47.617188 L 42.363281 31.746094 L 34.773438 31.746094 C 34.386719 32.429688 33.996094 33.089844 33.609375 33.730469 L 40.96875 33.730469 L 45.214844 45.636719 L 4.386719 45.636719 L 8.632813 33.730469 L 15.992188 33.730469 C 15.605469 33.089844 15.21875 32.429688 14.832031 31.746094 Z "/>
</g>
</svg>
