<?xml version="1.0" encoding="UTF-8"?>
<svg xmlns="http://www.w3.org/2000/svg" xmlns:xlink="http://www.w3.org/1999/xlink" width="50pt" height="50pt" viewBox="0 0 50 50" version="1.1">
<g id="surface1">
<path style=" stroke:none;fill-rule:nonzero;fill:#EE3E54;fill-opacity:1;" d="M 7.5 14.5 C 7.5 15.050781 7.050781 15.5 6.5 15.5 C 5.949219 15.5 5.5 15.050781 5.5 14.5 C 5.5 13.949219 5.949219 13.5 6.5 13.5 C 7.050781 13.5 7.5 13.949219 7.5 14.5 Z "/>
<path style=" stroke:none;fill-rule:nonzero;fill:#F1BC19;fill-opacity:1;" d="M 39 6.5 C 39 6.777344 38.777344 7 38.5 7 C 38.222656 7 38 6.777344 38 6.5 C 38 6.222656 38.222656 6 38.5 6 C 38.777344 6 39 6.222656 39 6.5 Z "/>
<path style=" stroke:none;fill-rule:nonzero;fill:#FCE0A2;fill-opacity:1;" d="M 43.5 25 C 43.5 35.21875 35.21875 43.5 25 43.5 C 14.78125 43.5 6.5 35.21875 6.5 25 C 6.5 14.78125 14.78125 6.5 25 6.5 C 35.21875 6.5 43.5 14.78125 43.5 25 Z "/>
<path style=" stroke:none;fill-rule:nonzero;fill:#F1BC19;fill-opacity:1;" d="M 43.5 7.5 C 43.5 8.605469 42.605469 9.5 41.5 9.5 C 40.394531 9.5 39.5 8.605469 39.5 7.5 C 39.5 6.394531 40.394531 5.5 41.5 5.5 C 42.605469 5.5 43.5 6.394531 43.5 7.5 Z "/>
<path style=" stroke:none;fill-rule:nonzero;fill:#EE3E54;fill-opacity:1;" d="M 44.5 12 C 44.5 12.550781 44.050781 13 43.5 13 C 42.949219 13 42.5 12.550781 42.5 12 C 42.5 11.449219 42.949219 11 43.5 11 C 44.050781 11 44.5 11.449219 44.5 12 Z "/>
<path style=" stroke:none;fill-rule:nonzero;fill:#FBCD59;fill-opacity:1;" d="M 41.5 38 C 41.5 38.550781 41.050781 39 40.5 39 C 39.949219 39 39.5 38.550781 39.5 38 C 39.5 37.449219 39.949219 37 40.5 37 C 41.050781 37 41.5 37.449219 41.5 38 Z "/>
<path style=" stroke:none;fill-rule:nonzero;fill:#FBCD59;fill-opacity:1;" d="M 9.5 31.5 C 9.5 32.605469 8.605469 33.5 7.5 33.5 C 6.394531 33.5 5.5 32.605469 5.5 31.5 C 5.5 30.394531 6.394531 29.5 7.5 29.5 C 8.605469 29.5 9.5 30.394531 9.5 31.5 Z "/>
<path style=" stroke:none;fill-rule:nonzero;fill:#EE3E54;fill-opacity:1;" d="M 13.5 43.5 C 13.5 44.050781 13.050781 44.5 12.5 44.5 C 11.949219 44.5 11.5 44.050781 11.5 43.5 C 11.5 42.949219 11.949219 42.5 12.5 42.5 C 13.050781 42.5 13.5 42.949219 13.5 43.5 Z "/>
<path style=" stroke:none;fill-rule:nonzero;fill:#FFFFFF;fill-opacity:1;" d="M 10.5 26.75 C 10.5 27.441406 9.941406 28 9.25 28 C 8.558594 28 8 27.441406 8 26.75 C 8 26.058594 8.558594 25.5 9.25 25.5 C 9.941406 25.5 10.5 26.058594 10.5 26.75 Z "/>
<path style=" stroke:none;fill-rule:nonzero;fill:#F1BC19;fill-opacity:1;" d="M 11 33.5 C 11 33.777344 10.777344 34 10.5 34 C 10.222656 34 10 33.777344 10 33.5 C 10 33.222656 10.222656 33 10.5 33 C 10.777344 33 11 33.222656 11 33.5 Z "/>
<path style=" stroke:none;fill-rule:nonzero;fill:#FFFFFF;fill-opacity:1;" d="M 40.5 17 C 40.5 17.277344 40.277344 17.5 40 17.5 C 39.722656 17.5 39.5 17.277344 39.5 17 C 39.5 16.722656 39.722656 16.5 40 16.5 C 40.277344 16.5 40.5 16.722656 40.5 17 Z "/>
<path style=" stroke:none;fill-rule:nonzero;fill:#FFFEF4;fill-opacity:1;" d="M 15.898438 35.148438 C 16.058594 34.625 16.609375 34.328125 17.414063 33.933594 L 17.65625 33.8125 L 19.347656 33.253906 L 19.347656 26.648438 L 19.039063 26.613281 C 17.320313 26.421875 15.699219 25.460938 14.703125 24.042969 C 13.753906 22.699219 13.449219 21.039063 13.84375 19.378906 L 14.710938 14.894531 C 14.773438 14.578125 15.050781 14.351563 15.375 14.351563 L 24.96875 14.351563 C 25.289063 14.351563 25.570313 14.578125 25.628906 14.894531 L 26.496094 19.363281 C 26.996094 21.480469 26.328125 23.046875 25.683594 23.988281 C 24.726563 25.386719 23.144531 26.359375 21.453125 26.59375 L 21.148438 26.636719 L 21.148438 33.253906 L 22.890625 33.832031 L 23.085938 33.933594 C 23.890625 34.328125 24.441406 34.625 24.601563 35.148438 Z "/>
<path style=" stroke:none;fill-rule:nonzero;fill:#472B29;fill-opacity:1;" d="M 24.96875 14.699219 C 25.125 14.699219 25.257813 14.808594 25.289063 14.960938 L 26.152344 19.429688 L 26.15625 19.445313 L 26.160156 19.457031 C 26.625 21.433594 26 22.90625 25.394531 23.789063 C 24.492188 25.109375 23 26.027344 21.40625 26.246094 L 20.800781 26.328125 L 20.800781 33.503906 L 21.277344 33.664063 L 22.734375 34.148438 L 22.929688 34.246094 C 23.371094 34.460938 23.691406 34.632813 23.914063 34.800781 L 16.589844 34.800781 C 16.808594 34.632813 17.128906 34.460938 17.570313 34.246094 L 17.765625 34.148438 L 19.222656 33.664063 L 19.699219 33.503906 L 19.699219 26.335938 L 19.078125 26.265625 C 17.457031 26.082031 15.929688 25.179688 14.992188 23.84375 C 14.363281 22.949219 13.710938 21.460938 14.1875 19.457031 L 14.191406 19.445313 L 14.191406 19.429688 L 15.058594 14.960938 C 15.085938 14.808594 15.21875 14.699219 15.375 14.699219 L 24.96875 14.699219 M 24.96875 14 L 15.375 14 C 14.882813 14 14.460938 14.347656 14.371094 14.828125 L 13.503906 19.296875 C 12.542969 23.359375 15.59375 26.578125 19 26.960938 L 19 33 L 17.5 33.5 C 16.5 34 15.5 34.394531 15.5 35.5 L 25 35.5 C 25 34.394531 24 34 23 33.5 L 21.5 33 L 21.5 26.941406 C 24.859375 26.476563 27.789063 23.300781 26.839844 19.296875 L 25.976563 14.828125 C 25.882813 14.347656 25.460938 14 24.96875 14 Z "/>
<path style=" stroke:none;fill-rule:nonzero;fill:#88CDD7;fill-opacity:1;" d="M 32.5 35.148438 C 32.199219 35.148438 31.921875 35.03125 31.710938 34.816406 C 31.503906 34.597656 31.394531 34.316406 31.40625 34.015625 L 31.824219 23.175781 L 30.445313 22.332031 C 30.089844 22.023438 29.910156 21.558594 29.972656 21.089844 L 30.808594 14.351563 L 34.191406 14.351563 L 35.027344 21.085938 C 35.089844 21.5625 34.914063 22.023438 34.554688 22.332031 L 33.175781 23.175781 L 33.59375 34.015625 C 33.605469 34.316406 33.496094 34.597656 33.289063 34.816406 C 33.078125 35.03125 32.800781 35.148438 32.5 35.148438 Z "/>
<path style=" stroke:none;fill-rule:nonzero;fill:#472B29;fill-opacity:1;" d="M 33.882813 14.699219 L 34.679688 21.136719 C 34.726563 21.480469 34.601563 21.820313 34.34375 22.050781 L 33.167969 22.769531 L 32.816406 22.984375 L 32.835938 23.394531 L 33.242188 34.027344 C 33.25 34.230469 33.175781 34.425781 33.035156 34.570313 C 32.894531 34.71875 32.703125 34.800781 32.5 34.800781 C 32.296875 34.800781 32.105469 34.71875 31.964844 34.570313 C 31.824219 34.425781 31.75 34.230469 31.757813 34.027344 L 32.167969 23.394531 L 32.183594 22.984375 L 31.832031 22.769531 L 30.65625 22.050781 C 30.398438 21.820313 30.277344 21.480469 30.320313 21.128906 L 31.117188 14.699219 L 33.882813 14.699219 M 34.5 14 L 30.5 14 L 29.628906 21.042969 C 29.546875 21.640625 29.78125 22.234375 30.242188 22.617188 L 31.464844 23.367188 L 31.058594 34 C 31.027344 34.820313 31.679688 35.5 32.5 35.5 C 33.320313 35.5 33.972656 34.820313 33.941406 34 L 33.535156 23.367188 L 34.757813 22.617188 C 35.21875 22.234375 35.453125 21.640625 35.371094 21.042969 Z "/>
<path style=" stroke:none;fill-rule:nonzero;fill:#472B29;fill-opacity:1;" d="M 31.5 14 L 31.5 20.5 L 32 20.5 L 32.324219 14 Z "/>
<path style=" stroke:none;fill-rule:nonzero;fill:#472B29;fill-opacity:1;" d="M 32.675781 14 L 33 20.5 L 33.5 20.5 L 33.5 14 Z "/>
<path style=" stroke:none;fill-rule:nonzero;fill:#EA5167;fill-opacity:1;" d="M 25.976563 18.5 L 14.367188 18.5 L 14.191406 19.417969 C 13.328125 23.066406 16.0625 25.949219 19.121094 26.292969 L 21.363281 26.273438 C 24.375 25.859375 27.003906 23.007813 26.152344 19.417969 Z "/>
<path style=" stroke:none;fill-rule:nonzero;fill:#472B29;fill-opacity:1;" d="M 20.25 18.5 L 14.25 18.5 C 14.113281 18.5 14 18.386719 14 18.25 C 14 18.113281 14.113281 18 14.25 18 L 20.25 18 C 20.386719 18 20.5 18.113281 20.5 18.25 C 20.5 18.386719 20.386719 18.5 20.25 18.5 Z "/>
<path style=" stroke:none;fill-rule:nonzero;fill:#472B29;fill-opacity:1;" d="M 23.25 18.5 L 21.75 18.5 C 21.613281 18.5 21.5 18.386719 21.5 18.25 C 21.5 18.113281 21.613281 18 21.75 18 L 23.25 18 C 23.386719 18 23.5 18.113281 23.5 18.25 C 23.5 18.386719 23.386719 18.5 23.25 18.5 Z "/>
<path style=" stroke:none;fill-rule:nonzero;fill:#472B29;fill-opacity:1;" d="M 26.25 18.5 L 24.75 18.5 C 24.613281 18.5 24.5 18.386719 24.5 18.25 C 24.5 18.113281 24.613281 18 24.75 18 L 26.25 18 C 26.386719 18 26.5 18.113281 26.5 18.25 C 26.5 18.386719 26.386719 18.5 26.25 18.5 Z "/>
<path style=" stroke:none;fill-rule:nonzero;fill:#472B29;fill-opacity:1;" d="M 18.5 24.75 C 18.464844 24.75 18.429688 24.742188 18.398438 24.726563 C 17.230469 24.195313 16.386719 23.382813 15.960938 22.378906 C 15.90625 22.253906 15.964844 22.105469 16.09375 22.050781 C 16.21875 21.996094 16.367188 22.058594 16.421875 22.183594 C 16.796875 23.070313 17.550781 23.792969 18.601563 24.273438 C 18.730469 24.328125 18.785156 24.476563 18.726563 24.605469 C 18.683594 24.695313 18.59375 24.75 18.5 24.75 Z "/>
<path style=" stroke:none;fill-rule:nonzero;fill:#472B29;fill-opacity:1;" d="M 15.917969 21.480469 C 15.792969 21.480469 15.683594 21.386719 15.671875 21.257813 C 15.625 20.8125 15.652344 20.371094 15.757813 19.941406 C 15.789063 19.804688 15.925781 19.726563 16.058594 19.757813 C 16.191406 19.789063 16.273438 19.925781 16.242188 20.058594 C 16.152344 20.429688 16.128906 20.816406 16.167969 21.203125 C 16.179688 21.34375 16.082031 21.464844 15.945313 21.480469 C 15.9375 21.480469 15.925781 21.480469 15.917969 21.480469 Z "/>
</g>
</svg>
