<?xml version="1.0" encoding="UTF-8"?>
<svg xmlns="http://www.w3.org/2000/svg" xmlns:xlink="http://www.w3.org/1999/xlink" width="26pt" height="26pt" viewBox="0 0 26 26" version="1.1">
<g id="surface1">
<path style=" stroke:none;fill-rule:nonzero;fill:#FFFFFF;fill-opacity:1;" d="M 20.683594 14.476563 C 17.921875 18.613281 13.589844 22.355469 13.394531 22.457031 C 13.296875 22.550781 13 22.652344 12.804688 22.652344 C 12.605469 22.652344 12.3125 22.550781 12.113281 22.457031 C 11.917969 22.355469 7.582031 18.515625 4.824219 14.476563 C 4.628906 14.179688 4.628906 13.789063 4.726563 13.394531 C 5.023438 13 5.316406 12.804688 5.710938 12.804688 L 9.355469 12.804688 C 9.355469 12.804688 9.847656 4.234375 10.144531 3.839844 C 10.539063 3.347656 11.71875 2.953125 12.804688 2.953125 C 13.886719 2.953125 14.96875 3.347656 15.363281 3.839844 C 15.65625 4.234375 16.25 12.804688 16.25 12.804688 L 19.894531 12.804688 C 20.289063 12.804688 20.582031 13 20.78125 13.394531 C 20.976563 13.6875 20.878906 14.085938 20.683594 14.476563 Z "/>
</g>
</svg>
